<svg version="1.1" id="Layer_1" xmlns="http://www.w3.org/2000/svg" xmlns:xlink="http://www.w3.org/1999/xlink" x="0px" y="0px" width="100%" viewBox="255 340 735 185" enable-background="new 255 340 735 185" xml:space="preserve">

<path fill="#F4FDFC" opacity="1.000000" stroke="none" d="
M651.459656,486.634827 
	C664.146301,486.131958 677.226196,487.408752 689.428345,484.712830 
	C708.149292,480.576538 718.821167,466.563202 722.840820,448.280426 
	C726.203552,432.985657 724.848755,417.655640 717.020569,403.741852 
	C707.564819,386.935272 690.254700,376.733826 669.398254,380.796448 
	C649.645569,384.644012 639.229858,397.041534 633.709656,415.403839 
	C628.148865,433.901062 630.631531,451.028656 640.959412,467.082001 
	C642.990295,470.238708 646.105042,472.692688 648.677612,475.509430 
	C649.606812,476.526855 650.412048,477.657593 651.901855,479.522919 
	C649.594849,479.706116 648.379272,479.883026 647.163208,479.886475 
	C636.996948,479.915375 626.823547,479.694946 616.667847,480.026825 
	C612.644287,480.158356 610.842163,478.431885 609.124268,475.195831 
	C600.876038,459.658691 597.472229,443.042358 599.236267,425.709045 
	C601.967163,398.877533 613.134644,375.947021 636.462769,361.542450 
	C658.365662,348.017914 682.395813,345.911102 706.824097,355.556641 
	C729.429565,364.482452 743.198059,381.293304 751.094788,403.942078 
	C757.442627,422.148285 757.809814,440.502869 752.503784,458.514801 
	C744.478577,485.757263 727.437744,505.385681 699.089783,512.764160 
	C689.353271,515.298462 679.045044,516.266052 668.948914,516.645447 
	C652.472839,517.264526 635.955811,516.905945 619.457336,516.787842 
	C603.136780,516.671021 587.649292,513.100830 574.710999,502.747070 
	C564.872253,494.873596 558.608521,484.042328 556.306396,471.726990 
	C554.564087,462.406616 554.300171,452.724243 554.215942,443.195557 
	C553.956604,413.865387 554.142517,384.531464 554.022827,355.199554 
	C554.010132,352.081482 554.617065,350.025604 558.063171,350.007874 
	C567.232544,349.960632 576.402344,349.991791 585.884277,349.991791 
	C585.884277,357.433960 585.888062,363.408447 585.883667,369.382935 
	C585.862305,398.548615 585.691772,427.715271 585.888000,456.879486 
	C585.966797,468.583618 590.084595,478.453766 601.416260,483.848724 
	C603.593445,484.885254 606.044434,485.346802 609.070862,486.420471 
	C623.668335,486.723175 637.563965,486.679016 651.459656,486.634827 
z" data-index="1" style="opacity: 1;"></path>
<path fill="#F4FDFC" opacity="1.000000" stroke="none" d="
M908.577454,351.287476 
	C919.571716,350.056366 929.939453,350.214203 939.989807,354.612793 
	C960.485840,363.582977 970.696533,380.647980 976.801392,400.903717 
	C981.446350,416.315521 980.681946,432.272491 980.743469,448.104187 
	C980.825684,469.256317 980.623413,490.410095 980.815613,511.560699 
	C980.853699,515.755676 979.649475,517.009888 975.489502,516.855957 
	C967.204102,516.549316 958.899292,516.765198 950.042419,516.765198 
	C950.042419,508.899780 950.042236,501.462158 950.042419,494.024536 
	C950.042725,484.361053 949.931580,474.695587 950.105347,465.035217 
	C950.164795,461.727112 949.021179,460.739471 945.772766,460.764984 
	C928.612793,460.899902 911.450806,460.906219 894.290649,460.788574 
	C890.835205,460.764862 889.746338,461.893738 889.629211,465.397827 
	C889.320618,474.634613 889.434509,484.024475 887.739258,493.044983 
	C884.835632,508.494690 865.863159,519.694214 850.352661,516.561584 
	C838.356689,514.138733 830.353333,507.213104 825.100159,496.485260 
	C821.063538,488.242004 816.758118,480.130493 812.705872,471.894653 
	C807.088501,460.477661 810.356567,446.171814 820.356873,438.338135 
	C823.017090,436.254303 825.981323,436.024261 828.210693,438.906952 
	C830.508545,441.878204 832.622925,445.043091 834.421082,448.339569 
	C840.131287,458.808044 845.561035,469.430389 851.346436,479.856079 
	C852.327087,481.623260 854.529724,482.712341 856.167786,484.114685 
	C857.127502,482.036224 858.894165,479.967804 858.920105,477.877747 
	C859.141724,460.053131 858.898499,442.222931 859.087097,424.397552 
	C859.299194,404.346130 865.055115,385.871643 877.608765,370.221771 
	C885.332581,360.592957 896.031982,354.532196 908.577454,351.287476 
M923.477661,432.029449 
	C932.318298,432.029449 941.158875,432.029449 950.092041,432.029449 
	C949.894714,418.063232 947.402527,406.072235 941.597900,395.008209 
	C931.504578,375.769653 909.335876,375.944794 898.938965,393.235565 
	C892.744690,403.537170 890.593933,414.818573 889.734009,426.581787 
	C889.418579,430.897247 891.099609,432.113098 895.008423,432.065369 
	C904.165955,431.953461 913.325684,432.029297 923.477661,432.029449 
z" data-index="2" style="opacity: 1;"></path>
<path fill="#F5FEFB" opacity="1.000000" stroke="none" d="
M273.850403,389.377899 
	C269.802338,376.797760 265.926117,364.593353 261.612396,351.011444 
	C265.612701,351.011444 268.934784,351.141724 272.242310,350.978271 
	C276.319366,350.776794 280.381317,350.122681 284.455597,350.063660 
	C287.172760,350.024261 290.031372,350.296875 292.576416,351.164215 
	C294.259735,351.737946 296.321106,353.358734 296.812103,354.944550 
	C302.333221,372.777863 307.514954,390.715759 312.921295,408.585205 
	C320.145782,432.464386 327.428986,456.326447 334.888855,480.132599 
	C335.498505,482.078186 337.657043,483.538391 339.095886,485.224121 
	C340.753235,483.432800 343.193756,481.919189 343.943024,479.805908 
	C349.522858,464.067749 354.203796,447.990692 360.269775,432.450500 
	C366.822296,415.663727 375.245880,399.871002 387.322327,386.051666 
	C401.696106,369.603516 419.556946,359.276764 440.230469,353.595734 
	C452.764008,350.151581 465.717163,349.678589 478.658752,351.217010 
	C482.264923,351.645660 484.293701,353.236572 484.022430,357.675812 
	C483.537811,365.605927 483.886017,373.586914 483.886017,381.777344 
	C481.868317,381.777344 480.189728,382.061066 478.639252,381.735168 
	C451.497162,376.030396 429.666992,386.023041 411.360840,405.151001 
	C396.770172,420.396667 389.166687,439.570587 382.817871,459.330658 
	C379.130707,470.806580 375.185028,482.210693 370.966156,493.501587 
	C366.101135,506.521912 357.312805,515.405701 342.878937,516.797119 
	C327.120605,518.316223 315.413208,511.272461 309.098755,497.184814 
	C303.800018,485.363251 300.133148,472.784546 296.119568,460.419098 
	C290.835205,444.138306 285.928253,427.735138 280.839600,411.390656 
	C278.591766,404.170654 276.296173,396.965485 273.850403,389.377899 
z" data-index="3"></path>
<path fill="#F4FEFD" opacity="1.000000" stroke="none" d="
M523.389160,442.338135 
	C522.932678,453.823944 522.208679,465.334534 529.429932,475.448029 
	C534.343933,482.330109 541.114563,485.751007 549.378723,485.977264 
	C552.545593,486.063965 554.273071,486.844543 555.912476,489.765564 
	C560.611389,498.137726 566.634338,505.500397 574.581909,511.121002 
	C576.419739,512.420715 578.098633,513.944946 580.135681,515.596985 
	C578.984741,516.180420 578.406921,516.738586 577.854370,516.714539 
	C564.184998,516.120544 550.172729,517.155212 536.927551,514.446899 
	C513.723206,509.702148 498.986938,494.740967 494.193390,471.085602 
	C492.960968,465.003815 492.221130,458.715637 492.182251,452.516479 
	C491.982880,420.704681 492.088959,388.890991 492.081573,357.077942 
	C492.079987,350.330750 494.326721,348.937134 501.195465,349.904266 
	C506.220215,350.611725 511.447388,350.444031 516.528259,350.010132 
	C520.519348,349.669312 523.903442,351.766602 523.827942,355.923309 
	C523.699402,362.998993 523.275879,370.069275 522.995728,378.059967 
	C523.002563,390.466827 522.933105,401.955841 522.994995,413.444183 
	C523.046875,423.075928 523.251892,432.706848 523.389160,442.338135 
z" data-index="4"></path>
<path fill="#F2FEFC" opacity="1.000000" stroke="none" d="
M499.189636,509.188843 
	C481.954834,516.340576 464.702057,518.880920 446.468994,515.195923 
	C428.033386,511.470032 412.380829,502.884521 398.980194,490.082031 
	C394.657013,485.951843 391.256348,480.811493 387.693726,475.942963 
	C384.506256,471.587067 387.256317,467.010590 388.647003,463.147278 
	C393.727966,449.032288 398.003510,434.484650 406.765167,421.993225 
	C407.703644,420.655212 409.635559,419.193939 411.118500,419.181305 
	C432.445343,418.999847 453.774231,419.057190 475.480957,419.057190 
	C475.480957,428.615021 475.480957,437.999420 475.480957,448.048431 
	C453.874847,448.048431 432.175537,448.048431 409.871124,448.048431 
	C413.215363,461.003357 420.403564,470.265381 430.714264,476.974670 
	C441.635742,484.081390 453.734100,488.040649 466.914093,486.953094 
	C473.048187,486.446930 479.070862,484.676636 485.179321,483.700043 
	C486.403473,483.504303 488.464600,483.881287 488.991608,484.717651 
	C493.595856,492.024994 497.938965,499.496887 502.616486,507.351288 
	C501.934784,507.709686 500.725128,508.345734 499.189636,509.188843 
z" data-index="5"></path>
<path fill="#F1FDFC" opacity="1.000000" stroke="none" d="
M772.340271,446.336060 
	C775.612976,439.656464 780.136047,434.842316 786.398193,431.277924 
	C797.190857,425.134766 803.069641,414.745544 808.572021,404.121704 
	C817.282898,387.303131 826.068665,370.522888 834.939636,353.788452 
	C835.564819,352.609009 837.136780,351.174622 838.293701,351.152069 
	C848.753357,350.948059 859.218689,351.032623 870.442932,351.032623 
	C866.550415,358.690369 863.057251,365.820801 859.334778,372.829407 
	C852.558716,385.587341 845.533508,398.213715 838.830200,411.009155 
	C834.194336,419.858093 828.470276,427.282532 819.998535,433.210663 
	C813.867676,437.500732 808.599182,443.966827 804.855286,450.548553 
	C793.342163,470.788483 782.679871,491.515411 771.862610,512.145203 
	C770.125854,515.457275 768.257690,517.046326 764.280579,516.914734 
	C754.673340,516.596741 745.048523,516.811462 734.481262,516.811462 
	C747.245789,492.977417 759.663269,469.791382 772.340271,446.336060 
z" data-index="6" style="opacity: 1;"></path>
<path fill="#F1FDFC" opacity="1.000000" stroke="none" d="
M792.159729,421.155701 
	C790.062195,423.526520 788.428711,425.902313 786.286621,427.657349 
	C782.036255,431.139832 779.162842,430.723206 776.264954,425.894379 
	C770.908447,416.968781 765.829773,407.872986 760.772095,398.772064 
	C752.594849,384.057617 744.523193,369.284393 736.426514,354.525269 
	C735.900085,353.565613 735.540771,352.514282 734.895020,351.023895 
	C746.134644,351.023895 756.903259,350.847015 767.654297,351.202545 
	C769.393250,351.260071 771.704346,353.330383 772.647705,355.068970 
	C780.012634,368.643036 786.810425,382.531036 794.390076,395.980103 
	C799.499756,405.046509 799.222229,413.071686 792.159729,421.155701 
z" data-index="7" style="visibility: visible; opacity: 1; fill: rgb(255, 255, 255);"></path>
<path fill="#F1FDFC" opacity="1.000000" stroke="none" d="
M523.581299,442.071350 
	C523.251892,432.706848 523.046875,423.075928 522.994995,413.444183 
	C522.933105,401.955841 523.002563,390.466827 523.054688,378.518799 
	C523.369202,379.575684 523.882690,381.091858 523.883179,382.608124 
	C523.888916,402.340271 523.821960,422.072418 523.581299,442.071350 
z" data-index="8" style="visibility: visible;"></path>
<path fill="#F1FDFC" opacity="1.000000" stroke="none" d="
M651.181335,486.433929 
	C637.563965,486.679016 623.668335,486.723175 609.456909,486.525085 
	C623.061829,486.266235 636.982422,486.249634 651.181335,486.433929 
z" data-index="9" style="visibility: visible;"></path>

</svg>